<?xml version="1.0" encoding="UTF-8"?>
<svg version="1.1" xmlns="http://www.w3.org/2000/svg" width="128" height="128">
<path d="M0 0 C0.80179687 -0.00515625 1.60359375 -0.0103125 2.4296875 -0.015625 C8.42924563 0.22532111 13.00208841 3.77463611 17 8 C17.6015625 9.9921875 17.6015625 9.9921875 18 12 C19.1652328 13.96912163 20.44604488 15.82487095 21.74609375 17.70703125 C26.63014054 26.63829439 26.25822924 38.68025767 24.3125 48.453125 C21.20038777 58.36001559 16.1066188 67.12794468 9.41796875 75.02734375 C7.94804484 77.07227921 7.56842723 78.58676803 7 81 C5.33779419 82.00739746 3.66979326 83.00522955 2 84 C-2.1003974 87.66836319 -5.57816525 91.03897288 -8 96 C-10 97.125 -10 97.125 -12 98 C-14.16343011 100.03268602 -14.16343011 100.03268602 -16 103 C-17.485 103.495 -17.485 103.495 -19 104 C-19.66 104.99 -20.32 105.98 -21 107 C-22.485 107.495 -22.485 107.495 -24 108 C-24.763125 108.763125 -25.52625 109.52625 -26.3125 110.3125 C-32.98451613 116.98451613 -32.98451613 116.98451613 -38.05078125 117.0234375 C-41.05514203 116.77631029 -44.01880459 116.44380255 -47 116 C-47.33 115.01 -47.66 114.02 -48 113 C-48.598125 112.896875 -49.19625 112.79375 -49.8125 112.6875 C-53.20816269 111.62029173 -54.13059327 108.92094801 -56 106 C-57.97139158 104.27503237 -59.68427731 103.14351031 -62.0625 102.0625 C-64.45129726 100.75251441 -65.45275028 99.21996699 -67 97 C-68.63607367 95.29279269 -70.33876209 93.68176895 -72.0625 92.0625 C-74 90 -74 90 -74.87109375 88.140625 C-76.24056132 85.54384913 -77.9590314 83.79771575 -80 81.6875 C-94.34653999 65.97572475 -102.07656853 49.52131427 -101.17480469 28.12451172 C-100.53942867 20.40238589 -96.76037064 15.09896689 -91.48828125 9.69140625 C-89.77058063 7.96054562 -89.77058063 7.96054562 -89 5 C-80.05394093 0.09409664 -67.91738811 -0.15318466 -58 1 C-51.74355499 3.32382243 -48.24953988 6.22304021 -45 12 C-44.13248296 13.1265503 -43.23990025 14.23471052 -42.3125 15.3125 C-41.549375 16.199375 -40.78625 17.08625 -40 18 C-39.62488281 17.40832031 -39.24976563 16.81664063 -38.86328125 16.20703125 C-30.97961842 4.03402038 -30.97961842 4.03402038 -23 2 C-21.865625 1.62875 -20.73125 1.2575 -19.5625 0.875 C-13.17010215 -0.68922838 -6.52589449 -0.20079675 0 0 Z " fill="#5497E4" transform="translate(102,6)"/>
<path d="M0 0 C0.48498752 2.66743137 0.37853411 4.4043854 -1.08984375 6.71484375 C-3.68172439 9.85672559 -6.24451874 12.26182886 -9.6875 14.4375 C-13.77370709 17.15563776 -14.65264015 20.45503261 -16 25 C-16.63960014 26.3465266 -17.289999 27.68922893 -18 29 C-18.66 29 -19.32 29 -20 29 C-20.2475 29.94875 -20.495 30.8975 -20.75 31.875 C-22 35 -22 35 -24.125 36.375 C-24.74375 36.58125 -25.3625 36.7875 -26 37 C-27.47793555 34.04412889 -27.17053651 31.35002355 -27.1875 28.0625 C-27.20167969 26.81597656 -27.21585938 25.56945312 -27.23046875 24.28515625 C-27 21 -27 21 -25 18 C-24.01 18 -23.02 18 -22 18 C-21.50371094 17.03578125 -21.00742187 16.0715625 -20.49609375 15.078125 C-19.81087674 13.80155633 -19.12462322 12.52554365 -18.4375 11.25 C-18.11458984 10.61578125 -17.79167969 9.9815625 -17.45898438 9.328125 C-13.54161172 2.16492929 -8.36262422 -0.6826632 0 0 Z " fill="#99BBEC" transform="translate(84,21)"/>
<path d="M0 0 C2.25 2.5625 2.25 2.5625 4 5 C2.9331528 6.38883328 1.86620929 7.77759268 0.79882812 9.16601562 C-0.11331993 10.35298591 -1.02477165 11.54049162 -1.93554688 12.72851562 C-5.1102834 16.86420492 -8.33710209 20.95335642 -11.625 25 C-13.09359133 26.97730553 -13.09359133 26.97730553 -13.94921875 29.390625 C-15.20621414 32.51208567 -16.87138971 35.00349596 -18.8125 37.75 C-19.81216797 39.19632813 -19.81216797 39.19632813 -20.83203125 40.671875 C-23.31902724 43.34259501 -24.50299883 43.47572063 -28 44 C-28.22730289 40.45928579 -28.42844022 36.91754334 -28.625 33.375 C-28.68945312 32.37597656 -28.75390625 31.37695312 -28.8203125 30.34765625 C-29.09829231 25.10078735 -29.19579577 20.91120734 -27 16 C-26.01 16 -25.02 16 -24 16 C-24.32742187 16.98097656 -24.65484375 17.96195313 -24.9921875 18.97265625 C-26.19137284 23.16980492 -26.22816407 27.10064102 -26.125 31.4375 C-26.11597656 32.16904297 -26.10695312 32.90058594 -26.09765625 33.65429688 C-26.07436153 35.43634298 -26.0385019 37.21821759 -26 39 C-22.58959557 36.63628473 -21.29224067 34.98440872 -20 31 C-19.34 31 -18.68 31 -18 31 C-17.8659375 30.42894531 -17.731875 29.85789062 -17.59375 29.26953125 C-15.5769675 21.5606455 -12.76039762 17.13990056 -6.12109375 12.60546875 C-2.15821296 9.6059402 -0.681691 6.90817522 0 2 C-1.58467728 2.28427417 -3.1677057 2.57774818 -4.75 2.875 C-5.63171875 3.03742187 -6.5134375 3.19984375 -7.421875 3.3671875 C-9.90804335 3.97742882 -11.83754616 4.63501217 -14 6 C-14.68124706 7.99508067 -15.34427209 9.99638693 -16 12 C-17.87454569 15.08896911 -19.91517584 18.04977713 -22 21 C-22 14.83647843 -18.20732907 8.32306367 -14.5546875 3.4453125 C-10.80915368 -0.03671643 -4.83614481 -2.14514146 0 0 Z " fill="#72A8E9" transform="translate(84,19)"/>
<path d="M0 0 C0.33 1.65 0.66 3.3 1 5 C1.99 5.33 2.98 5.66 4 6 C-5.29992842 20.11023622 -5.29992842 20.11023622 -12 22 C-12.99 21.67 -13.98 21.34 -15 21 C-15.6958222 13.59335921 -14.82402423 7.89038748 -10 2 C-6.60495439 -0.14211211 -3.98479907 -0.18112723 0 0 Z " fill="#79ACEA" transform="translate(21,18)"/>
<path d="M0 0 C0.66 0.66 1.32 1.32 2 2 C1.071875 1.87625 0.14375 1.7525 -0.8125 1.625 C-7.29020883 1.63816607 -13.25792096 5.61070306 -18.00390625 9.74609375 C-21.30350295 13.31601885 -22.68401832 16.0496203 -23 21 C-23.33333333 23 -23.66666667 25 -24 27 C-24.66 26.67 -25.32 26.34 -26 26 C-26.93134353 45.78587578 -21.74499629 59.58678622 -9 75 C-9.33 75.66 -9.66 76.32 -10 77 C-23.07752261 61.64664877 -30.67588067 46.40222191 -29.22314453 25.99560547 C-28.36499771 18.32110639 -24.77002787 13.10887227 -19.48828125 7.69140625 C-17.77058063 5.96054562 -17.77058063 5.96054562 -17 3 C-11.52722922 0.26361461 -6.06778489 -0.34345952 0 0 Z " fill="#6CA5EA" transform="translate(30,8)"/>
<path d="M0 0 C0.3125 2.1875 0.3125 2.1875 0 5 C-2.27212477 7.66163187 -4.56268744 9.69724515 -7.4375 11.6875 C-12.13341166 15.92527394 -15.22983056 21.56113011 -17.125 27.5625 C-17.558125 28.7690625 -17.558125 28.7690625 -18 30 C-19.32 30.33 -20.64 30.66 -22 31 C-22 27.37 -22 23.74 -22 20 C-20.68 20.33 -19.36 20.66 -18 21 C-15.44006449 16.93941265 -13.78028843 13.48207898 -12.625 8.8125 C-11.57627569 5.06787025 -11.124701 4.11385743 -8.125 1.375 C-5.07066822 0.03109402 -3.28082581 -0.38597951 0 0 Z " fill="#B6CBED" transform="translate(80,23)"/>
<path d="M0 0 C2.25 2.5625 2.25 2.5625 4 5 C-8.75 19.30555556 -8.75 19.30555556 -14 23 C-13.68385836 19.82223142 -13.38293043 18.36691143 -11.0390625 16.12109375 C-10.24242188 15.56550781 -9.44578125 15.00992188 -8.625 14.4375 C-4.50461771 11.53175809 -1.57059599 9.28238397 -0.3125 4.25 C-0.209375 3.5075 -0.10625 2.765 0 2 C-1.58467728 2.28427417 -3.1677057 2.57774818 -4.75 2.875 C-5.63171875 3.03742187 -6.5134375 3.19984375 -7.421875 3.3671875 C-9.90804335 3.97742882 -11.83754616 4.63501217 -14 6 C-14.68124706 7.99508067 -15.34427209 9.99638693 -16 12 C-17.87454569 15.08896911 -19.91517584 18.04977713 -22 21 C-22 14.83647843 -18.20732907 8.32306367 -14.5546875 3.4453125 C-10.80915368 -0.03671643 -4.83614481 -2.14514146 0 0 Z " fill="#7DAFEB" transform="translate(84,19)"/>
<path d="M0 0 C0.33 0 0.66 0 1 0 C1.03738281 1.03898437 1.07476562 2.07796875 1.11328125 3.1484375 C1.89589759 21.18546774 7.84632748 37.32711842 20 51 C19.67 51.66 19.34 52.32 19 53 C4.85803515 36.39696594 -0.87306908 21.60845984 0 0 Z " fill="#7CA2DE" transform="translate(1,32)"/>
<path d="M0 0 C0.25 2.3125 0.25 2.3125 0 5 C-1.875 6.5625 -1.875 6.5625 -4 8 C-5.2516467 10.08334635 -5.2516467 10.08334635 -6 12 C-7.32 12 -8.64 12 -10 12 C-10.71281198 5.94109817 -10.71281198 5.94109817 -8.8046875 3.421875 C-5.66195845 0.67396115 -4.24052998 0 0 0 Z " fill="#ADC6ED" transform="translate(19,22)"/>
<path d="M0 0 C0.34316564 3.23147644 0.23597951 4.6500401 -1.609375 7.38671875 C-2.31578125 8.14597656 -3.0221875 8.90523437 -3.75 9.6875 C-4.44609375 10.45449219 -5.1421875 11.22148438 -5.859375 12.01171875 C-7.85253257 13.86302752 -9.5111609 14.95177272 -12 16 C-14 14 -14 14 -14.125 10.875 C-14.08375 9.92625 -14.0425 8.9775 -14 8 C-13.67 8 -13.34 8 -13 8 C-13 9.65 -13 11.3 -13 13 C-11.08533633 12.87822312 -11.08533633 12.87822312 -9 12 C-7.3553326 9.53673288 -7.3553326 9.53673288 -6 7 C-5.34 6.67 -4.68 6.34 -4 6 C-3.34444881 3.47266765 -3.34444881 3.47266765 -3 1 C-7.54170996 2.90884692 -7.54170996 2.90884692 -12 5 C-11.25 2.5625 -11.25 2.5625 -10 0 C-6.67997395 -1.66001303 -3.52119078 -0.72024357 0 0 Z " fill="#9ABDEC" transform="translate(22,21)"/>
<path d="M0 0 C2.57283808 1.82588509 2.84329645 3.41421393 3.9375 6.375 C5.18054188 8.45486092 6.48795019 10.48162137 7.81640625 12.5078125 C9.70699504 15.65659801 10.05922986 18.23725079 10.03515625 21.82421875 C10.03193359 22.67177734 10.02871094 23.51933594 10.02539062 24.39257812 C10.01701172 25.27365234 10.00863281 26.15472656 10 27.0625 C9.99548828 27.95517578 9.99097656 28.84785156 9.98632812 29.76757812 C9.97454983 31.97011987 9.95810164 34.17252599 9.9375 36.375 C9.6075 36.375 9.2775 36.375 8.9375 36.375 C8.91171875 35.40820312 8.8859375 34.44140625 8.859375 33.4453125 C8.27045007 19.92680844 5.10085552 9.97372466 -5.0625 0.375 C-2.0625 -0.625 -2.0625 -0.625 0 0 Z " fill="#83B8EE" transform="translate(116.0625,11.625)"/>
<path d="M0 0 C3.10298149 1.70663982 3.8159606 3.28759444 5.5 6.375 C7.10425451 8.4348434 8.79623873 10.39495312 10.5 12.375 C11.49 11.385 12.48 10.395 13.5 9.375 C13.5 10.365 13.5 11.355 13.5 12.375 C11.83333333 14.04166667 10.16666667 15.70833333 8.5 17.375 C7.180982 20.04033035 7.180982 20.04033035 6.5 22.375 C6.17 21.715 5.84 21.055 5.5 20.375 C5.891875 19.3025 6.28375 18.23 6.6875 17.125 C7.87804418 13.40422846 7.87804418 13.40422846 6.125 10.25 C3.36766936 7.23006644 0.74999257 5.42508863 -2.79296875 3.453125 C-4.5 2.375 -4.5 2.375 -5.5 0.375 C-2.5 -0.625 -2.5 -0.625 0 0 Z " fill="#6CA4E9" transform="translate(51.5,11.625)"/>
<path d="M0 0 C0.89203125 0.01804687 1.7840625 0.03609375 2.703125 0.0546875 C3.71632813 0.08949219 3.71632813 0.08949219 4.75 0.125 C1.85709529 2.05360314 -0.98594516 3.45408132 -4.125 4.9375 C-8.69988607 7.19171142 -12.01625641 9.19831135 -15.25 13.125 C-15.91 12.795 -16.57 12.465 -17.25 12.125 C-13.26199375 4.7786727 -8.61487089 -0.22670713 0 0 Z " fill="#73A7EC" transform="translate(82.25,7.875)"/>
<path d="M0 0 C0.33 0 0.66 0 1 0 C1.47127928 11.78198207 1.82101452 22.76847822 -5 33 C-5.66 32.67 -6.32 32.34 -7 32 C-6.47599609 30.78763672 -6.47599609 30.78763672 -5.94140625 29.55078125 C-5.48636719 28.48214844 -5.03132813 27.41351563 -4.5625 26.3125 C-4.11003906 25.25675781 -3.65757813 24.20101562 -3.19140625 23.11328125 C-1.17884611 17.85423065 -0.76364079 12.77466601 -0.4375 7.1875 C-0.37272461 6.14819336 -0.37272461 6.14819336 -0.30664062 5.08789062 C-0.20138547 3.39211314 -0.10027137 1.69607948 0 0 Z " fill="#699DE4" transform="translate(126,33)"/>
<path d="M0 0 C0.33 0.99 0.66 1.98 1 3 C-1.15859924 6.83750975 -3.28595371 9.61239881 -7 12 C-7.66 11.67 -8.32 11.34 -9 11 C-8.67 10.67 -8.34 10.34 -8 10 C-8.66 9.34 -9.32 8.68 -10 8 C-9.01 7.67 -8.02 7.34 -7 7 C-6.67 6.01 -6.34 5.02 -6 4 C-3.5 2.375 -3.5 2.375 -1 1 C-0.67 0.67 -0.34 0.34 0 0 Z " fill="#3E85D2" transform="translate(79,108)"/>
<path d="M0 0 C-2.54018673 3.53811723 -3.81841206 5.02429615 -8 6 C-9.28436734 7.9837767 -9.28436734 7.9837767 -10 10 C-12 9 -12 9 -13 6 C-6.07061503 -0.88838269 -6.07061503 -0.88838269 0 0 Z " fill="#4779C3" transform="translate(96,99)"/>
<path d="M0 0 C5.45566044 2.62937351 9.19541644 5.53106207 12 11 C12.33 11.99 12.66 12.98 13 14 C9.07434702 12.51095922 8.05899618 10.56364724 6 7 C4.06791227 4.60599927 2.04570002 2.29727478 0 0 Z " fill="#517ECA" transform="translate(40,105)"/>
<path d="M0 0 C0.33 1.32 0.66 2.64 1 4 C-2.26913624 5.03115279 -4.86041348 4.9638984 -8.25 4.5625 C-9.14203125 4.46066406 -10.0340625 4.35882813 -10.953125 4.25390625 C-11.62859375 4.17011719 -12.3040625 4.08632812 -13 4 C-12.67 3.34 -12.34 2.68 -12 2 C-9.78515625 1.3671875 -9.78515625 1.3671875 -7.0625 0.875 C-6.16660156 0.70742187 -5.27070312 0.53984375 -4.34765625 0.3671875 C-2 0 -2 0 0 0 Z " fill="#4567BF" transform="translate(68,118)"/>
<path d="M0 0 C1.32 0.33 2.64 0.66 4 1 C0.37 4.63 -3.26 8.26 -7 12 C-7.66 11.67 -8.32 11.34 -9 11 C-8.319375 10.38125 -8.319375 10.38125 -7.625 9.75 C-5.90313178 8.07330411 -5.90313178 8.07330411 -5 5.875 C-4 4 -4 4 -1 3 C-0.67 2.01 -0.34 1.02 0 0 Z " fill="#5186D5" transform="translate(102,87)"/>
<path d="M0 0 C1.65 0.33 3.3 0.66 5 1 C2.33333333 3.66666667 -0.33333333 6.33333333 -3 9 C-3.66 8.67 -4.32 8.34 -5 8 C-3.38731308 5.28775382 -1.75098126 2.62647188 0 0 Z " fill="#5FA2EB" transform="translate(70,12)"/>
<path d="M0 0 C0.66 0 1.32 0 2 0 C2.125 2.375 2.125 2.375 2 5 C1.34 5.66 0.68 6.32 0 7 C-0.99 7 -1.98 7 -3 7 C-2.25 2.25 -2.25 2.25 0 0 Z " fill="#C7D5EF" transform="translate(14,24)"/>
<path d="M0 0 C0.33 0 0.66 0 1 0 C1.08069658 2.95887459 1.14034665 5.9155659 1.1875 8.875 C1.22520508 10.13763672 1.22520508 10.13763672 1.26367188 11.42578125 C1.27333984 12.23144531 1.28300781 13.03710938 1.29296875 13.8671875 C1.3086792 14.61081543 1.32438965 15.35444336 1.34057617 16.12060547 C1.17199097 17.05090576 1.17199097 17.05090576 1 18 C0.01 18.66 -0.98 19.32 -2 20 C-1.84660156 19.33613281 -1.69320312 18.67226563 -1.53515625 17.98828125 C-0.89226979 14.39844078 -0.64966009 10.82204581 -0.4375 7.1875 C-0.39431641 6.49462891 -0.35113281 5.80175781 -0.30664062 5.08789062 C-0.20138547 3.39211314 -0.10027137 1.69607948 0 0 Z " fill="#78A5E6" transform="translate(126,33)"/>
<path d="M0 0 C0.33 0 0.66 0 1 0 C1 1.65 1 3.3 1 5 C4.37503669 3.8141763 6.64722731 2.72426311 9 0 C9.66 0.33 10.32 0.66 11 1 C7.04 4.465 7.04 4.465 3 8 C2.01 7.34 1.02 6.68 0 6 C-0.1875 2.875 -0.1875 2.875 0 0 Z " fill="#8EB5EA" transform="translate(8,29)"/>
<path d="M0 0 C0 3.58912412 -0.66436554 4.10857029 -3 6.6875 C-3.556875 7.31011719 -4.11375 7.93273438 -4.6875 8.57421875 C-5.120625 9.04472656 -5.55375 9.51523437 -6 10 C-6.33 9.01 -6.66 8.02 -7 7 C-2.88888889 1.44444444 -2.88888889 1.44444444 0 0 Z " fill="#68A3E8" transform="translate(79,33)"/>
<path d="M0 0 C0.66 0 1.32 0 2 0 C4.6875 2.8125 4.6875 2.8125 7 6 C6.67 6.99 6.34 7.98 6 9 C5.34 8.34 4.68 7.68 4 7 C3.29875 6.360625 2.5975 5.72125 1.875 5.0625 C0 3 0 3 0 0 Z " fill="#547DA4" transform="translate(28,93)"/>
<path d="M0 0 C1.32 0 2.64 0 4 0 C4 1.65 4 3.3 4 5 C3.01 5.33 2.02 5.66 1 6 C0.67 4.02 0.34 2.04 0 0 Z " fill="#B7CCEE" transform="translate(15,22)"/>
<path d="M0 0 C0.598125 0.20625 1.19625 0.4125 1.8125 0.625 C1.4825 1.945 1.1525 3.265 0.8125 4.625 C-1.1675 3.635 -3.1475 2.645 -5.1875 1.625 C-2.1875 -0.375 -2.1875 -0.375 0 0 Z " fill="#67ADDC" transform="translate(109.1875,7.375)"/>
<path d="M0 0 C0.99 0.33 1.98 0.66 3 1 C1.7260411 3.03833424 0.38938077 5.03852126 -1 7 C-1.66 7 -2.32 7 -3 7 C-2.690625 6.401875 -2.38125 5.80375 -2.0625 5.1875 C-0.89790296 2.91043228 -0.89790296 2.91043228 0 0 Z " fill="#7BADEA" transform="translate(22,23)"/>
<path d="M0 0 C1.32 0.66 2.64 1.32 4 2 C2.35 3.65 0.7 5.3 -1 7 C-2 4 -2 4 -1.0625 1.8125 C-0.5365625 0.9153125 -0.5365625 0.9153125 0 0 Z " fill="#75A6E3" transform="translate(13,11)"/>
<path d="M0 0 C1.65 0 3.3 0 5 0 C5 0.99 5 1.98 5 3 C3.02 3.33 1.04 3.66 -1 4 C-0.67 2.68 -0.34 1.36 0 0 Z " fill="#62A5E0" transform="translate(16,9)"/>
<path d="M0 0 C4.95 0 9.9 0 15 0 C15 0.33 15 0.66 15 1 C10.05 1 5.1 1 0 1 C0 0.67 0 0.34 0 0 Z " fill="#57B2D7" transform="translate(87,4)"/>
<path d="M0 0 C1.85625 -0.061875 1.85625 -0.061875 3.75 -0.125 C4.79414062 -0.15980469 4.79414062 -0.15980469 5.859375 -0.1953125 C8 0 8 0 12 2 C8.04 1.67 4.08 1.34 0 1 C0 0.67 0 0.34 0 0 Z " fill="#2099DB" transform="translate(28,5)"/>
<path d="M0 0 C1.98 0 3.96 0 6 0 C6 0.33 6 0.66 6 1 C4.02 1 2.04 1 0 1 C0 0.67 0 0.34 0 0 Z " fill="#465CA2" transform="translate(59,123)"/>
<path d="M0 0 C1.485 0.99 1.485 0.99 3 2 C2.67 2.66 2.34 3.32 2 4 C1.34 2.68 0.68 1.36 0 0 Z " fill="#1C7FB8" transform="translate(25,92)"/>
<path d="M0 0 C1 4 1 4 1 4 Z " fill="#AAD4FF" transform="translate(127,51)"/>
<path d="M0 0 C1 4 1 4 1 4 Z " fill="#5F74E9" transform="translate(0,51)"/>
<path d="M0 0 C4 1 4 1 4 1 Z " fill="#84A9EF" transform="translate(24,6)"/>
<path d="M0 0 C4 1 4 1 4 1 Z " fill="#748A9A" transform="translate(83,5)"/>
<path d="" fill="#718DE2" transform="translate(0,0)"/>
<path d="" fill="#1C8DFF" transform="translate(0,0)"/>
<path d="" fill="#8D8DA9" transform="translate(0,0)"/>
<path d="" fill="#54D4E9" transform="translate(0,0)"/>
<path d="" fill="#8DB8D4" transform="translate(0,0)"/>
<path d="" fill="#71B8FF" transform="translate(0,0)"/>
<path d="" fill="#8DE2FF" transform="translate(0,0)"/>
<path d="" fill="#1CE2FF" transform="translate(0,0)"/>
<path d="M0 0 C0.99 0.495 0.99 0.495 2 1 C1.01 1.495 1.01 1.495 0 2 C0 1.34 0 0.68 0 0 Z " fill="#316394" transform="translate(61,21)"/>
<path d="M0 0 C3 1 3 1 3 1 Z " fill="#469BCD" transform="translate(102,5)"/>
<path d="" fill="#7FFFFF" transform="translate(0,0)"/>
<path d="" fill="#BFBFFF" transform="translate(0,0)"/>
<path d="" fill="#2AAAD4" transform="translate(0,0)"/>
<path d="" fill="#3FBFFF" transform="translate(0,0)"/>
<path d="" fill="#3F3FFF" transform="translate(0,0)"/>
<path d="" fill="#BFBFFF" transform="translate(0,0)"/>
<path d="" fill="#3FBFFF" transform="translate(0,0)"/>
<path d="" fill="#3FFFFF" transform="translate(0,0)"/>
<path d="" fill="#2A55D4" transform="translate(0,0)"/>
<path d="" fill="#3F7FFF" transform="translate(0,0)"/>
<path d="" fill="#7F7FBF" transform="translate(0,0)"/>
<path d="" fill="#7F7FBF" transform="translate(0,0)"/>
<path d="" fill="#5555FF" transform="translate(0,0)"/>
<path d="" fill="#7F7FFF" transform="translate(0,0)"/>
<path d="" fill="#3FBFDF" transform="translate(0,0)"/>
<path d="" fill="#6A94D4" transform="translate(0,0)"/>
<path d="" fill="#9494BF" transform="translate(0,0)"/>
<path d="" fill="#D4D4FF" transform="translate(0,0)"/>
<path d="" fill="#2AD4FF" transform="translate(0,0)"/>
<path d="" fill="#55D4FF" transform="translate(0,0)"/>
<path d="" fill="#2A55FF" transform="translate(0,0)"/>
<path d="" fill="#BFBFFF" transform="translate(0,0)"/>
<path d="" fill="#2A55FF" transform="translate(0,0)"/>
<path d="" fill="#3FBFFF" transform="translate(0,0)"/>
<path d="" fill="#3FBFFF" transform="translate(0,0)"/>
<path d="M0 0 C2 1 2 1 2 1 Z " fill="#AAD4FF" transform="translate(18,8)"/>
<path d="M0 0 C2 1 2 1 2 1 Z " fill="#AAD4FF" transform="translate(79,7)"/>
<path d="M0 0 C2 1 2 1 2 1 Z " fill="#6AD4FF" transform="translate(21,7)"/>
<path d="M0 0 C2 1 2 1 2 1 Z " fill="#AAD4FF" transform="translate(105,6)"/>
<path d="M0 0 C2 1 2 1 2 1 Z " fill="#6AD4D4" transform="translate(81,6)"/>
<path d="" fill="#5555AA" transform="translate(0,0)"/>
<path d="" fill="#7F7FFF" transform="translate(0,0)"/>
<path d="" fill="#55AAAA" transform="translate(0,0)"/>
<path d="" fill="#7F7FFF" transform="translate(0,0)"/>
<path d="" fill="#55AAAA" transform="translate(0,0)"/>
<path d="" fill="#5555AA" transform="translate(0,0)"/>
<path d="" fill="#55AAFF" transform="translate(0,0)"/>
<path d="" fill="#55AAFF" transform="translate(0,0)"/>
<path d="" fill="#55AAFF" transform="translate(0,0)"/>
<path d="" fill="#55AAFF" transform="translate(0,0)"/>
<path d="" fill="#5555FF" transform="translate(0,0)"/>
<path d="" fill="#7F7FFF" transform="translate(0,0)"/>
<path d="" fill="#55AAAA" transform="translate(0,0)"/>
<path d="" fill="#00FFFF" transform="translate(0,0)"/>
<path d="" fill="#007F7F" transform="translate(0,0)"/>
<path d="" fill="#7F7FFF" transform="translate(0,0)"/>
<path d="" fill="#7F7FFF" transform="translate(0,0)"/>
<path d="" fill="#5555AA" transform="translate(0,0)"/>
<path d="" fill="#5555AA" transform="translate(0,0)"/>
<path d="" fill="#7F7FFF" transform="translate(0,0)"/>
<path d="" fill="#5555AA" transform="translate(0,0)"/>
<path d="" fill="#5555AA" transform="translate(0,0)"/>
<path d="" fill="#5555AA" transform="translate(0,0)"/>
<path d="" fill="#3F7FBF" transform="translate(0,0)"/>
<path d="" fill="#5555AA" transform="translate(0,0)"/>
<path d="" fill="#55AAFF" transform="translate(0,0)"/>
<path d="" fill="#5555AA" transform="translate(0,0)"/>
<path d="" fill="#55AAFF" transform="translate(0,0)"/>
<path d="" fill="#7F7FFF" transform="translate(0,0)"/>
<path d="" fill="#55AAAA" transform="translate(0,0)"/>
<path d="" fill="#7F7FFF" transform="translate(0,0)"/>
<path d="" fill="#5555AA" transform="translate(0,0)"/>
<path d="" fill="#55AAFF" transform="translate(0,0)"/>
<path d="" fill="#55AAAA" transform="translate(0,0)"/>
<path d="" fill="#55AAFF" transform="translate(0,0)"/>
<path d="" fill="#55AAFF" transform="translate(0,0)"/>
<path d="" fill="#7F7FFF" transform="translate(0,0)"/>
<path d="" fill="#55AAAA" transform="translate(0,0)"/>
<path d="" fill="#55AAAA" transform="translate(0,0)"/>
<path d="" fill="#55AAAA" transform="translate(0,0)"/>
<path d="" fill="#7F7FFF" transform="translate(0,0)"/>
<path d="" fill="#55AAAA" transform="translate(0,0)"/>
<path d="" fill="#55AAAA" transform="translate(0,0)"/>
<path d="" fill="#55AAAA" transform="translate(0,0)"/>
<path d="" fill="#55AAAA" transform="translate(0,0)"/>
<path d="" fill="#55AAFF" transform="translate(0,0)"/>
<path d="" fill="#AAAAFF" transform="translate(0,0)"/>
<path d="" fill="#55AAAA" transform="translate(0,0)"/>
<path d="" fill="#55AAAA" transform="translate(0,0)"/>
<path d="" fill="#7F7FFF" transform="translate(0,0)"/>
<path d="" fill="#5555FF" transform="translate(0,0)"/>
<path d="" fill="#55AAFF" transform="translate(0,0)"/>
<path d="" fill="#55AAFF" transform="translate(0,0)"/>
<path d="" fill="#7F7FFF" transform="translate(0,0)"/>
<path d="" fill="#55AAAA" transform="translate(0,0)"/>
<path d="" fill="#007F7F" transform="translate(0,0)"/>
<path d="" fill="#55AAFF" transform="translate(0,0)"/>
<path d="" fill="#55AAAA" transform="translate(0,0)"/>
<path d="" fill="#7F7FFF" transform="translate(0,0)"/>
<path d="" fill="#55AAFF" transform="translate(0,0)"/>
<path d="" fill="#55AAAA" transform="translate(0,0)"/>
<path d="" fill="#00FFFF" transform="translate(0,0)"/>
<path d="" fill="#55AAFF" transform="translate(0,0)"/>
<path d="" fill="#55AAFF" transform="translate(0,0)"/>
<path d="" fill="#55AAFF" transform="translate(0,0)"/>
<path d="" fill="#55AAAA" transform="translate(0,0)"/>
</svg>
